<svg xmlns="http://www.w3.org/2000/svg" width="536"
     height="88" viewBox="0 0 67 11">
    <path fill="#fff"
          d="M 20.4509 5.703 C 19.7545 5.7027 19.1063 5.6438 18.4725 5.7132 C 16.6802 5.9096 15.3349 3.858 15.5427 2.3766 C 15.755 0.8624 16.5385 0.0927 18.2535 0.04 C 20.7397 -0.0364 23.23 0.0197 25.7186 0.0222 C 25.7877 0.0223 25.8568 0.0565 25.9237 0.0742 C 25.7751 0.8314 24.4496 1.902 23.6653 1.9048 C 22.0425 1.9104 20.4197 1.903 18.7968 1.9088 C 18.3536 1.9104 17.9253 1.9634 17.7166 2.444 C 17.4142 3.1409 17.9368 3.7932 18.8341 3.8009 C 20.2305 3.813 21.6269 3.8038 23.0233 3.8044 C 24.6242 3.8051 25.7826 4.9365 25.8077 6.5229 C 25.8356 8.2849 24.692 9.5946 23.0611 9.6127 C 21.1933 9.6334 19.3251 9.6171 17.4571 9.602 C 17.2873 9.6006 17.0582 9.5406 16.9592 9.4235 C 16.5068 8.8889 16.091 8.3242 15.5735 7.656 C 17.3525 7.6005 19.0054 7.5442 20.6586 7.5 C 21.2621 7.4838 21.8662 7.4994 22.4701 7.4951 C 23.3141 7.4891 23.7218 7.2142 23.751 6.6388 C 23.7801 6.0647 23.2712 5.6155 22.4731 5.6016 C 21.8182 5.5902 21.1616 5.6659 20.4509 5.703 Z M 12.9786 5.8258 C 13.6793 6.9015 14.3661 7.9381 15.043 8.9809 C 15.2954 9.3698 15.1753 9.5841 14.7056 9.6091 C 14.4986 9.6201 14.2828 9.5778 14.0846 9.6208 C 13.0618 9.8425 12.4677 9.2625 11.9907 8.5196 C 10.837 6.7227 9.7078 4.9103 8.5683 3.1044 C 8.5386 3.0572 8.5025 3.014 8.4724 2.9669 C 7.9697 2.1829 7.3824 2.16 6.859 2.932 C 5.9822 4.2252 5.1332 5.5368 4.2589 6.8317 C 3.6864 7.6793 3.0921 8.5128 2.5005 9.3477 C 2.4299 9.4472 2.3165 9.5835 2.2184 9.5872 C 1.5781 9.6112 0.9335 9.6412 0.2966 9.5911 C -0.0549 9.5635 -0.0637 9.2856 0.1128 9.0168 C 0.6639 8.1772 1.215 7.3376 1.7648 6.4972 C 2.9148 4.7394 4.0328 2.9602 5.2225 1.2289 C 6.3582 -0.4236 8.9787 -0.3466 10.0874 1.3399 C 11.0573 2.8153 12.0039 4.3055 12.9786 5.8258 Z M 56.5778 3.2256 C 55.2629 5.1906 53.9611 7.1161 52.6873 9.0595 C 52.4208 9.4663 52.1195 9.6531 51.627 9.6167 C 51.1585 9.582 50.6847 9.6233 50.2137 9.6118 C 49.7569 9.6005 49.6645 9.4445 49.9075 9.0774 C 51.6631 6.4254 53.4081 3.7663 55.1937 1.134 C 55.9584 0.0065 58.0383 -0.1625 59.1387 0.7799 C 59.4745 1.0674 59.7631 1.4244 60.0137 1.7895 C 61.4967 3.951 62.9603 6.1254 64.4357 8.2919 C 64.6029 8.5374 64.8184 8.751 64.9851 8.9968 C 65.258 9.3992 65.1254 9.7071 64.6426 9.7089 C 63.985 9.7114 63.3241 9.6635 62.6712 9.5845 C 62.5057 9.5645 62.3244 9.3709 62.2194 9.2125 C 60.8954 7.216 59.5811 5.2132 58.2706 3.2081 C 57.6379 2.2399 57.2683 2.2325 56.5778 3.2256 Z M 44.3666 0.1193 C 45.1783 0.1198 45.9334 0.1172 46.6885 0.1216 C 47.9001 0.1288 48.9233 0.9592 49.3262 2.2566 C 49.6885 3.4233 49.2755 4.6306 48.2797 5.2793 C 47.7026 5.6552 47.1145 6.0148 46.5217 6.3878 C 47.1373 7.2159 47.7508 8.031 48.3494 8.8566 C 48.4514 8.9973 48.4895 9.183 48.5571 9.348 C 48.3861 9.3986 48.2159 9.4526 48.0433 9.4978 C 47.9902 9.5117 47.9304 9.4988 47.874 9.5026 C 45.9972 9.6293 46.4145 9.8624 45.2173 8.1835 C 44.9254 7.7743 44.6445 7.3568 44.3756 6.9326 C 44.039 6.4016 43.5785 6.118 42.9304 6.1378 C 42.4817 6.1516 42.0321 6.1405 41.5554 6.1405 C 41.509 5.5119 41.4646 4.9107 41.4161 4.2537 C 42.8786 4.2537 44.289 4.2625 45.6992 4.2464 C 45.9913 4.243 46.2978 4.1867 46.5709 4.0848 C 47.1851 3.8558 47.3631 3.4492 47.1891 2.721 C 47.0654 2.2034 46.6549 2.1335 46.19 2.1243 C 44.7941 2.0964 43.3986 2.0374 42.0027 2.0143 C 41.5656 2.007 41.3897 1.8475 41.4192 1.4132 C 41.4468 1.0075 41.4251 0.5986 41.4251 0.1193 C 42.4007 0.1193 43.3553 0.1193 44.3666 0.1193 Z M 30.5477 2.9112 C 30.5477 2.205 30.5593 1.5544 30.544 0.9043 C 30.532 0.3946 30.7783 0.1289 31.2782 0.126 C 33.01 0.116 34.7418 0.1222 36.5273 0.1222 C 36.5722 0.6566 36.6291 1.1667 36.6533 1.6783 C 36.6738 2.1097 36.339 2.1249 36.03 2.1273 C 35.2008 2.1336 34.3707 2.1495 33.5424 2.1223 C 33.0136 2.1049 32.7861 2.2837 32.805 2.8279 C 32.8352 3.7003 32.8322 4.5749 32.8085 5.4476 C 32.7764 6.6317 32.6957 7.8147 32.6687 8.9989 C 32.6583 9.4522 32.3886 9.5816 32.0285 9.603 C 31.5617 9.6309 31.0919 9.6098 30.5477 9.6098 C 30.5477 7.3745 30.5477 5.1708 30.5477 2.9112 Z M 37.9101 1.6843 C 37.9101 1.2387 37.9163 0.8485 37.9083 0.4586 C 37.9017 0.1412 38.0639 0.0294 38.3644 0.0483 C 38.7957 0.0756 39.2275 0.1142 39.6589 0.1129 C 39.9442 0.1121 40.0632 0.1952 40.067 0.4913 C 40.0872 2.0501 40.1314 3.6086 40.1506 5.1674 C 40.1657 6.3914 40.1523 7.6157 40.1601 8.8399 C 40.164 9.4439 40.0245 9.619 39.4249 9.6165 C 37.5541 9.6087 37.9306 9.7104 37.9165 8.2042 C 37.8963 6.0495 37.9105 3.8946 37.9101 1.6843 Z M 9.6414 7.6659 C 10.0305 8.2666 10.5156 8.7809 10.5492 9.5869 C 9.7641 9.5526 9.0206 9.5319 8.2799 9.475 C 8.1711 9.4666 8.0578 9.2988 7.9773 9.1839 C 7.4543 8.4382 6.9455 7.6827 6.42 6.9387 C 6.1353 6.5356 6.0769 6.1108 6.3024 5.6831 C 6.5309 5.2496 6.8098 4.8421 7.0667 4.4232 C 7.1445 4.4114 7.2224 4.3997 7.3002 4.388 C 8.0721 5.4701 8.844 6.5521 9.6414 7.6659 Z M 57.9003 9.5032 C 57.2572 8.5904 56.622 7.7189 56.0717 6.7981 C 55.9408 6.579 56.0042 6.1497 56.136 5.8971 C 56.3551 5.4772 56.7018 5.1221 57.096 4.6077 C 57.3728 4.922 57.6406 5.1743 57.8462 5.4687 C 58.6436 6.6108 59.4262 7.763 60.2005 8.9204 C 60.3056 9.0775 60.3333 9.2849 60.3968 9.4691 C 60.2098 9.5258 60.0217 9.6336 59.836 9.6298 C 59.2033 9.6165 58.5715 9.5639 57.9003 9.5032 Z M 29.0684 1.3425 C 28.5964 1.9407 28.0096 2.0963 27.3022 2.0263 C 26.7888 1.9755 26.266 2.0164 25.7124 2.0164 C 26.476 0.187 27.7528 -0.2979 30.2384 0.274 C 29.8357 0.6429 29.4678 0.9801 29.0684 1.3425 Z"
          stroke-width="0.01395833996119454" stroke="none" transform="translate(0 0)"/>
</svg>